<svg width="225" height="225" viewBox="0 0 225 225" fill="none" xmlns="http://www.w3.org/2000/svg">
<ellipse cx="112.5" cy="182.664" rx="88.5" ry="8.92437" fill="#2F2F2F" fill-opacity="0.17"/>
<g clip-path="url(#clip0)">
<path d="M122.84 96.6699V57.7192C122.84 57.1984 122.634 56.6991 122.265 56.3309C121.897 55.9626 121.398 55.7558 120.877 55.7558H95.8235C95.134 55.7558 94.4948 55.3941 94.14 54.8026L87.6124 43.9233C87.2576 43.3321 86.6185 42.9701 85.9289 42.9701H50.6473C49.5631 42.9701 48.6842 43.849 48.6842 44.9332V96.6696H122.84V96.6699Z" fill="white"/>
<path d="M174.577 55.7558H149.523C148.834 55.7558 148.195 55.3938 147.84 54.8026L153.526 96.6699H176.54V57.7186C176.54 56.6347 175.661 55.7558 174.577 55.7558Z" fill="#7FACFA"/>
<path d="M168.869 96.6699V57.7192C168.869 56.635 167.99 55.7561 166.905 55.7561H97.2694C96.5799 55.7561 95.9407 55.3944 95.5859 54.8029L89.0583 43.9237C88.7035 43.3324 88.0647 42.9704 87.3748 42.9704H58.3187C57.2345 42.9704 56.3556 43.8494 56.3556 44.9335V96.6699H168.869V96.6699Z" fill="#A4C2F7"/>
<path d="M173.274 181.055H133.069C132.726 181.055 132.435 180.804 132.384 180.466L119.808 97.4667C119.778 97.2671 119.836 97.0643 119.968 96.9111C120.099 96.758 120.292 96.6699 120.494 96.6699H185.85C186.052 96.6699 186.244 96.758 186.375 96.9111C186.507 97.0643 186.565 97.2671 186.535 97.467L173.96 180.466C173.908 180.804 173.617 181.055 173.274 181.055Z" fill="#A4C2F7"/>
<path d="M91.672 181.055H51.4669C51.1241 181.055 50.8328 180.804 50.7816 180.466L38.206 97.4667C38.1757 97.2671 38.2341 97.0642 38.3657 96.9111C38.4972 96.758 38.6893 96.6699 38.8913 96.6699H104.248C104.45 96.6699 104.641 96.758 104.773 96.9111C104.905 97.0642 104.963 97.2671 104.933 97.467L92.3573 180.466C92.3058 180.804 92.0145 181.055 91.672 181.055Z" fill="white"/>
<path d="M168.858 86.4412H56.3451V96.6696H168.858V86.4412Z" fill="#A4C2F7"/>
<path d="M166.301 78.7699H58.9021V86.4412H166.301V78.7699Z" fill="#A4C2F7"/>
<path d="M163.744 71.0985H61.4592V78.7699H163.744V71.0985Z" fill="#A4C2F7"/>
<path d="M165.603 181.055H59.3956C59.0528 181.055 58.7616 180.804 58.7103 180.466L46.135 97.4667C46.1047 97.2671 46.1632 97.0642 46.2947 96.9111C46.4263 96.758 46.6183 96.6699 46.8203 96.6699H178.178C178.38 96.6699 178.572 96.758 178.704 96.9111C178.836 97.0642 178.894 97.2671 178.864 97.467L166.288 180.466C166.237 180.804 165.946 181.055 165.603 181.055Z" fill="#E3E7F2"/>
<path d="M173.273 183.612H51.7252C50.1178 183.619 48.749 182.445 48.5113 180.855L35.9354 97.8485C35.794 96.9123 36.0679 95.9612 36.6855 95.2432C37.3028 94.5255 38.2027 94.1126 39.1493 94.1126H185.849C186.795 94.1129 187.694 94.5252 188.311 95.2414C188.929 95.9579 189.204 96.9075 189.065 97.8434L176.487 180.847C176.253 182.44 174.883 183.618 173.273 183.612ZM53.326 178.497H171.672L183.681 99.2269H41.317L53.326 178.497Z" fill="#428DFF"/>
<path d="M176.54 99.2269H48.684C48.0055 99.2272 47.355 98.9581 46.8755 98.4784C46.3958 97.9986 46.1267 97.348 46.127 96.6699V44.9332C46.1299 42.4382 48.1518 40.4164 50.6468 40.4134H85.9296C87.5169 40.4179 88.9864 41.2513 89.8051 42.6108L96.1603 53.1988H174.577C177.072 53.2015 179.094 55.2236 179.097 57.7186V96.6696C179.097 97.348 178.828 97.9986 178.348 98.4781C177.869 98.9575 177.218 99.2272 176.54 99.2269ZM51.241 94.1126H173.983V58.3131H95.8232C94.2359 58.3086 92.7664 57.4753 91.9477 56.1157L85.5922 45.5275H51.241V94.1126Z" fill="#428DFF"/>
<path d="M168.868 99.2269H56.3553C55.6769 99.2272 55.0263 98.9581 54.5468 98.4784C54.0671 97.9986 53.798 97.348 53.7983 96.6699V86.4412C53.798 85.7628 54.0671 85.1122 54.5468 84.6328C55.0266 84.153 55.6772 83.8839 56.3553 83.8842H168.868C169.547 83.8839 170.197 84.153 170.677 84.6328C171.156 85.1125 171.426 85.7631 171.425 86.4412V96.6696C171.426 97.348 171.156 97.9986 170.677 98.4781C170.197 98.9575 169.547 99.2272 168.868 99.2269ZM58.9123 94.1126H166.311V88.9982H58.9123V94.1126V94.1126Z" fill="#428DFF"/>
<path d="M166.311 88.9985H58.9123C58.2339 88.9988 57.5833 88.7297 57.1038 88.25C56.6241 87.7702 56.355 87.1197 56.3553 86.4415V78.7702C56.355 78.0917 56.6241 77.4412 57.1038 76.9617C57.5836 76.4819 58.2342 76.2129 58.9123 76.2132H166.311C166.99 76.2129 167.64 76.4819 168.12 76.9617C168.599 77.4415 168.869 78.092 168.868 78.7702V86.4415C168.869 87.12 168.599 87.7705 168.12 88.25C167.64 88.7294 166.99 88.9988 166.311 88.9985ZM61.4693 83.8842H163.754V81.3272H61.4693V83.8842Z" fill="#428DFF"/>
<path d="M163.754 81.3272H61.4693C60.7909 81.3275 60.1403 81.0584 59.6608 80.5786C59.1814 80.0989 58.912 79.4483 58.9123 78.7702V71.0988C58.912 70.4204 59.1811 69.7698 59.6608 69.2904C60.1406 68.8106 60.7912 68.5415 61.4693 68.5418H163.754C164.432 68.5415 165.083 68.8106 165.562 69.2904C166.042 69.7701 166.311 70.4207 166.311 71.0988V78.7702C166.311 79.4486 166.042 80.0992 165.562 80.5786C165.083 81.0581 164.432 81.3275 163.754 81.3272ZM64.0266 76.2129H161.197V73.6558H64.0266V76.2129Z" fill="#428DFF"/>
</g>
<defs>
<clipPath id="clip0">
<rect width="153.202" height="153.202" fill="white" transform="translate(35.8992 35.4118)"/>
</clipPath>
</defs>
</svg>
