<svg height="512" viewBox="0 0 60 54" width="512" xmlns="http://www.w3.org/2000/svg"><g id="Page-1" fill="none" fill-rule="evenodd"><g id="014---Chat-Bot" fill-rule="nonzero"><path id="Shape" d="m19 1h22c9.9411255 0 18 8.0588745 18 18v6c0 9.9411255-8.0588745 18-18 18h-21.418c-.3802081-.0002051-.7525334.1084042-1.073.313l-10.509 6.687v-9.827c-.00678719-.5976612-.27457848-1.1624707-.733-1.546-3.97959897-3.4085546-6.26925956-8.3872054-6.267-13.627v-6c0-9.9411255 8.0588745-18 18-18z" fill="#e8edfc"/><path id="Shape" d="m41 1h-3c9.9411255 0 18 8.0588745 18 18v6c0 9.9411255-8.0588745 18-18 18h3c9.9411255 0 18-8.0588745 18-18v-6c0-9.9411255-8.0588745-18-18-18z" fill="#cad9fc"/><rect id="Rectangle-path" fill="#a4c2f7" height="22" rx="11" width="48" x="6" y="12"/><path id="Shape" d="m43 12h-3c6.0751322 0 11 4.9248678 11 11s-4.9248678 11-11 11h3c6.0751322 0 11-4.9248678 11-11s-4.9248678-11-11-11z" fill="#7facfa"/><rect id="Rectangle-path" fill="#c6d8fb" height="6" rx="3" transform="matrix(-1 0 0 -1 60 100)" width="12" x="24" y="47"/><path id="Shape" d="m33 47h-3c1.6568542 0 3 1.3431458 3 3s-1.3431458 3-3 3h3c1.6568542 0 3-1.3431458 3-3s-1.3431458-3-3-3z" fill="#a4c3fd"/><circle id="Oval" cx="16" cy="21" fill="#e8edfc" r="4"/><circle id="Oval" cx="44" cy="21" fill="#e8edfc" r="4"/><path id="Shape" d="m7.267 38.627c.45842152.3835293.72621281.9483388.733 1.546v9.827l3-1.909v-7.918c-.0067872-.5976612-.2745785-1.1624707-.733-1.546-3.97959897-3.4085546-6.26925956-8.3872054-6.267-13.627v-6c0-9.9411255 8.0588745-18 18-18h-3c-9.9411255 0-18 8.0588745-18 18v6c-.00225956 5.2397946 2.28740103 10.2184454 6.267 13.627z" fill="#fff"/><path id="Shape" d="m1.862 10.836 1.8.861c-1.08780495 2.2812794-1.65546744 4.7756471-1.662 7.303h-2c.0085863-2.8256257.64456211-5.6140825 1.862-8.164z" fill="#fff"/><g fill="#428dff"><path id="Shape" d="m30 31c4.86 0 6.616-2.154 6.8-2.4.3250677-.4350142.2399363-1.0505454-.191-1.381-.4341886-.3344852-1.0560719-.2607476-1.4.166-.051.066-1.352 1.615-5.209 1.615-3.824 0-5.135-1.522-5.209-1.612-.3346846-.4393425-.9621575-.5241846-1.4015-.1895s-.5241846.9621575-.1895 1.4015c.184.246 1.94 2.4 6.8 2.4z"/><path id="Shape" d="m1.47 16.028c-.55228474.0030376-1.00246242-.4422153-1.00549998-.9945-.00303757-.5522847.44221524-1.0024624.99449998-1.0055h.011c.55228475 0 1 .4477153 1 1s-.44771525 1-1 1z"/><path id="Shape" d="m41 0h-22c-7.3220104.01275552-13.98680519 4.22676628-17.138 10.836-.12819348.2396328-.14845786.5224679-.0557365.7779286s.28968305.4594521.5417365.5610714c.49649037.1998848 1.06394153-.0044665 1.319-.475 2.8180839-5.91493333 8.7810636-9.68724815 15.333-9.7h22c9.3845001.01047101 16.989529 7.61549991 17 17v6c-.010471 9.3845001-7.6154999 16.989529-17 17h-21.417c-.5707329-.0004645-1.1297004.162264-1.611.469l-8.972 5.709v-8.006c-.00868714-.8873952-.40331686-1.7270329-1.081-2.3-3.75481647-3.2228725-5.91642875-7.9237127-5.919-12.872v-6c0-.5522847-.44771525-1-1-1s-1 .4477153-1 1v6c.00372394 5.5295749 2.41895176 10.7825311 6.614 14.385.23682342.1938515.37769427.4810674.386.787v9.828c-.00015254.3650826.19866253.7012343.51867236.8769586.32000983.1757244.71035043.1630908 1.01832764-.0329586l10.508-6.688c.1608097-.1021916.3474671-.1563153.538-.156h21.417c7.2128568-.0096836 13.7982545-4.1027019 17-10.566v3.566c-.0071648 6.624447-5.375553 11.9928352-12 12h-9.142c-.4545933-1.7606851-2.0395884-2.9931852-3.858-3h-6c-2.209139 0-4 1.790861-4 4s1.790861 4 4 4h6c1.8184116-.0068148 3.4034067-1.2393149 3.858-3h9.142c7.7285595-.0082673 13.9917327-6.2714405 14-14v-18c-.0115735-10.48861261-8.5113874-18.9884265-19-19zm-8 52h-6c-1.1045695 0-2-.8954305-2-2s.8954305-2 2-2h6c1.1045695 0 2 .8954305 2 2s-.8954305 2-2 2z"/><path id="Shape" d="m16 26c2.7614237 0 5-2.2385763 5-5s-2.2385763-5-5-5-5 2.2385763-5 5c.0033061 2.7600532 2.2399468 4.9966939 5 5zm0-8c1.6568542 0 3 1.3431458 3 3s-1.3431458 3-3 3-3-1.3431458-3-3 1.3431458-3 3-3z"/><path id="Shape" d="m44 26c2.7614237 0 5-2.2385763 5-5s-2.2385763-5-5-5-5 2.2385763-5 5c.0033061 2.7600532 2.2399468 4.9966939 5 5zm0-8c1.6568542 0 3 1.3431458 3 3s-1.3431458 3-3 3-3-1.3431458-3-3 1.3431458-3 3-3z"/><path id="Shape" d="m17 35h26c6.627417 0 12-5.372583 12-12s-5.372583-12-12-12h-26c-6.627417 0-12 5.372583-12 12s5.372583 12 12 12zm0-22h26c5.5228475 0 10 4.4771525 10 10s-4.4771525 10-10 10h-26c-5.5228475 0-10-4.4771525-10-10s4.4771525-10 10-10z"/></g></g></g></svg>