<svg width="524" height="495" viewBox="0 0 524 495" fill="none" xmlns="http://www.w3.org/2000/svg">
<ellipse cx="262" cy="469" rx="241" ry="25.5" fill="#2F2F2F" fill-opacity="0.17"/>
<path d="M162.133 16.0334H349.867C434.697 16.0334 503.467 84.8024 503.467 169.633V220.833C503.467 305.664 434.697 374.433 349.867 374.433H167.1C163.855 374.432 160.678 375.358 157.943 377.104L68.2666 434.167V350.31C68.2086 345.21 65.9235 340.39 62.0116 337.117C28.0524 308.031 8.51394 265.546 8.53322 220.833V169.633C8.53322 84.8024 77.3023 16.0334 162.133 16.0334Z" fill="#E8FCEE"/>
<path d="M349.867 16.0334H324.267C409.098 16.0334 477.867 84.8024 477.867 169.633V220.833C477.867 305.664 409.098 374.433 324.267 374.433H349.867C434.698 374.433 503.467 305.664 503.467 220.833V169.633C503.467 84.8024 434.698 16.0334 349.867 16.0334Z" fill="#B7FFB6"/>
<path d="M366.934 109.9H145.067C93.2257 109.9 51.2002 151.926 51.2002 203.767C51.2002 255.608 93.2257 297.633 145.067 297.633H366.934C418.775 297.633 460.8 255.608 460.8 203.767C460.8 151.926 418.775 109.9 366.934 109.9Z" fill="#B7FFB6"/>
<path d="M366.933 109.9H341.333C393.175 109.9 435.2 151.926 435.2 203.767C435.2 255.608 393.175 297.633 341.333 297.633H366.933C418.775 297.633 460.8 255.608 460.8 203.767C460.8 151.926 418.775 109.9 366.933 109.9Z" fill="#25C821"/>
<path d="M230.4 459.767H281.6C295.739 459.767 307.2 448.305 307.2 434.167C307.2 420.028 295.739 408.567 281.6 408.567H230.4C216.262 408.567 204.8 420.028 204.8 434.167C204.8 448.305 216.262 459.767 230.4 459.767Z" fill="#B7FFB6"/>
<path d="M281.6 408.567H256C270.138 408.567 281.6 420.028 281.6 434.167C281.6 448.305 270.138 459.767 256 459.767H281.6C295.738 459.767 307.2 448.305 307.2 434.167C307.2 420.028 295.738 408.567 281.6 408.567Z" fill="#25C821"/>
<path d="M136.533 220.833C155.385 220.833 170.667 205.551 170.667 186.7C170.667 167.849 155.385 152.567 136.533 152.567C117.682 152.567 102.4 167.849 102.4 186.7C102.4 205.551 117.682 220.833 136.533 220.833Z" fill="#E8FCEE"/>
<path d="M375.467 220.833C394.318 220.833 409.6 205.551 409.6 186.7C409.6 167.849 394.318 152.567 375.467 152.567C356.616 152.567 341.333 167.849 341.333 186.7C341.333 205.551 356.616 220.833 375.467 220.833Z" fill="#E8FCEE"/>
<path d="M62.0116 337.117C65.9235 340.39 68.2086 345.21 68.2666 350.31V434.167L93.8666 417.877V350.31C93.8086 345.21 91.5235 340.39 87.6116 337.117C53.6524 308.031 34.1139 265.546 34.1332 220.833V169.633C34.1332 84.8024 102.902 16.0334 187.733 16.0334H162.133C77.3023 16.0334 8.53322 84.8024 8.53322 169.633V220.833C8.51394 265.546 28.0524 308.031 62.0116 337.117Z" fill="white"/>
<path d="M15.8891 99.9672L31.2491 107.314C21.9665 126.781 17.1224 148.067 17.0667 169.633H0C0.0732698 145.521 5.50026 121.727 15.8891 99.9672Z" fill="white"/>
<path d="M256 272.033C297.472 272.033 312.457 253.653 314.027 251.553C316.801 247.841 316.074 242.589 312.397 239.769C308.692 236.915 303.385 237.544 300.45 241.185C300.015 241.749 288.913 254.967 256 254.967C223.368 254.967 212.181 241.979 211.55 241.211C208.694 237.462 203.339 236.738 199.59 239.594C195.841 242.45 195.117 247.804 197.973 251.553C199.543 253.653 214.528 272.033 256 272.033Z" fill="#026A00"/>
<path d="M12.5438 144.272C7.83095 144.298 3.98943 140.499 3.96351 135.786C3.93759 131.073 7.73708 127.232 12.4499 127.206H12.5438C17.2566 127.206 21.0771 131.026 21.0771 135.739C21.0771 140.452 17.2566 144.272 12.5438 144.272V144.272Z" fill="#026A00"/>
<path d="M468.5 0L162.133 7.5001C99.6522 7.60895 42.7793 43.5682 15.8891 99.967C14.7951 102.012 14.6222 104.425 15.4134 106.605C16.2047 108.785 17.8854 110.526 20.0363 111.393C24.273 113.099 29.1152 111.355 31.2917 107.34C55.3394 56.8657 106.223 24.6756 162.133 24.5668H349.867C429.948 24.6561 494.844 89.5521 494.933 169.633V220.833C494.844 300.914 429.948 365.81 349.867 365.9H167.108C162.238 365.896 157.468 367.284 153.361 369.902L76.8 418.619V350.301C76.7259 342.728 73.3584 335.564 67.5755 330.674C35.5344 303.172 17.0886 263.059 17.0667 220.833V169.633C17.0667 164.92 13.2462 161.1 8.53333 161.1C3.8205 161.1 0 164.92 0 169.633V220.833C0.0317776 268.019 20.6417 312.844 56.4395 343.585C58.4604 345.239 59.6625 347.69 59.7333 350.301V434.167C59.732 437.282 61.4286 440.15 64.1593 441.65C66.8901 443.149 70.221 443.042 72.8491 441.369L162.517 384.298C163.89 383.426 165.482 382.964 167.108 382.966H349.867C411.416 382.884 467.612 347.957 494.933 292.803V323.233C494.872 379.762 449.062 425.572 392.533 425.633H314.522C310.642 410.609 297.117 400.091 281.6 400.033H230.4C211.549 400.033 196.267 415.315 196.267 434.167C196.267 453.018 211.549 468.3 230.4 468.3H281.6C297.117 468.242 310.642 457.724 314.522 442.7H392.533C458.484 442.629 511.929 389.184 512 323.233V169.633C511.901 80.1303 558.003 0.0987605 468.5 0ZM281.6 451.233H230.4C220.974 451.233 213.333 443.592 213.333 434.167C213.333 424.741 220.974 417.1 230.4 417.1H281.6C291.026 417.1 298.667 424.741 298.667 434.167C298.667 443.592 291.026 451.233 281.6 451.233Z" fill="#026A00"/>
<path d="M136.533 229.367C160.098 229.367 179.2 210.264 179.2 186.7C179.2 163.136 160.098 144.033 136.533 144.033C112.969 144.033 93.8667 163.136 93.8667 186.7C93.8949 210.252 112.981 229.338 136.533 229.367ZM136.533 161.1C150.672 161.1 162.133 172.562 162.133 186.7C162.133 200.838 150.672 212.3 136.533 212.3C122.395 212.3 110.933 200.838 110.933 186.7C110.933 172.562 122.395 161.1 136.533 161.1Z" fill="#026A00"/>
<path d="M375.466 229.367C399.031 229.367 418.133 210.264 418.133 186.7C418.133 163.136 399.031 144.033 375.466 144.033C351.902 144.033 332.8 163.136 332.8 186.7C332.828 210.252 351.914 229.338 375.466 229.367ZM375.466 161.1C389.605 161.1 401.066 172.562 401.066 186.7C401.066 200.838 389.605 212.3 375.466 212.3C361.328 212.3 349.866 200.838 349.866 186.7C349.866 172.562 361.328 161.1 375.466 161.1Z" fill="#026A00"/>
<path d="M145.067 306.167H366.933C423.487 306.167 469.333 260.321 469.333 203.767C469.333 147.213 423.487 101.367 366.933 101.367H145.067C88.5125 101.367 42.6665 147.213 42.6665 203.767C42.6665 260.321 88.5125 306.167 145.067 306.167ZM145.067 118.433H366.933C414.061 118.433 452.267 156.638 452.267 203.767C452.267 250.895 414.061 289.1 366.933 289.1H145.067C97.9382 289.1 59.7332 250.895 59.7332 203.767C59.7332 156.638 97.9382 118.433 145.067 118.433Z" fill="#026A00"/>
</svg>
