<svg width="1914" height="495" viewBox="0 0 1914 495" fill="none" xmlns="http://www.w3.org/2000/svg">
<ellipse cx="262" cy="469" rx="241" ry="25.5" fill="#2F2F2F" fill-opacity="0.17"/>
<path d="M162.133 16.0334H349.867C434.697 16.0334 503.467 84.8024 503.467 169.633V220.833C503.467 305.664 434.697 374.433 349.867 374.433H167.1C163.855 374.432 160.678 375.358 157.943 377.104L68.2666 434.167V350.31C68.2086 345.21 65.9235 340.39 62.0116 337.117C28.0524 308.031 8.51394 265.546 8.53322 220.833V169.633C8.53322 84.8024 77.3023 16.0334 162.133 16.0334Z" fill="#E8FCEE"/>
<path d="M349.867 16.0334H324.267C409.098 16.0334 477.867 84.8024 477.867 169.633V220.833C477.867 305.664 409.098 374.433 324.267 374.433H349.867C434.698 374.433 503.467 305.664 503.467 220.833V169.633C503.467 84.8024 434.698 16.0334 349.867 16.0334Z" fill="#B7FFB6"/>
<path d="M366.934 109.9H145.067C93.2257 109.9 51.2002 151.926 51.2002 203.767C51.2002 255.608 93.2257 297.633 145.067 297.633H366.934C418.775 297.633 460.8 255.608 460.8 203.767C460.8 151.926 418.775 109.9 366.934 109.9Z" fill="#B7FFB6"/>
<path d="M366.933 109.9H341.333C393.175 109.9 435.2 151.926 435.2 203.767C435.2 255.608 393.175 297.633 341.333 297.633H366.933C418.775 297.633 460.8 255.608 460.8 203.767C460.8 151.926 418.775 109.9 366.933 109.9Z" fill="#25C821"/>
<path d="M230.4 459.767H281.6C295.739 459.767 307.2 448.305 307.2 434.167C307.2 420.028 295.739 408.567 281.6 408.567H230.4C216.262 408.567 204.8 420.028 204.8 434.167C204.8 448.305 216.262 459.767 230.4 459.767Z" fill="#B7FFB6"/>
<path d="M281.6 408.567H256C270.138 408.567 281.6 420.028 281.6 434.167C281.6 448.305 270.138 459.767 256 459.767H281.6C295.738 459.767 307.2 448.305 307.2 434.167C307.2 420.028 295.738 408.567 281.6 408.567Z" fill="#25C821"/>
<path d="M136.533 220.833C155.385 220.833 170.667 205.551 170.667 186.7C170.667 167.849 155.385 152.567 136.533 152.567C117.682 152.567 102.4 167.849 102.4 186.7C102.4 205.551 117.682 220.833 136.533 220.833Z" fill="#E8FCEE"/>
<path d="M375.467 220.833C394.318 220.833 409.6 205.551 409.6 186.7C409.6 167.849 394.318 152.567 375.467 152.567C356.616 152.567 341.333 167.849 341.333 186.7C341.333 205.551 356.616 220.833 375.467 220.833Z" fill="#E8FCEE"/>
<path d="M62.0116 337.117C65.9235 340.39 68.2086 345.21 68.2666 350.31V434.167L93.8666 417.877V350.31C93.8086 345.21 91.5235 340.39 87.6116 337.117C53.6524 308.031 34.1139 265.546 34.1332 220.833V169.633C34.1332 84.8024 102.902 16.0334 187.733 16.0334H162.133C77.3023 16.0334 8.53322 84.8024 8.53322 169.633V220.833C8.51394 265.546 28.0524 308.031 62.0116 337.117Z" fill="white"/>
<path d="M15.8891 99.9672L31.2491 107.314C21.9665 126.781 17.1224 148.067 17.0667 169.633H0C0.0732698 145.521 5.50026 121.727 15.8891 99.9672Z" fill="white"/>
<path d="M256 272.033C297.472 272.033 312.457 253.653 314.027 251.553C316.801 247.841 316.074 242.589 312.397 239.769C308.692 236.915 303.385 237.544 300.45 241.185C300.015 241.749 288.913 254.967 256 254.967C223.368 254.967 212.181 241.979 211.55 241.211C208.694 237.462 203.339 236.738 199.59 239.594C195.841 242.45 195.117 247.804 197.973 251.553C199.543 253.653 214.528 272.033 256 272.033Z" fill="#026A00"/>
<path d="M12.5438 144.272C7.83095 144.298 3.98943 140.499 3.96351 135.786C3.93759 131.073 7.73708 127.232 12.4499 127.206H12.5438C17.2566 127.206 21.0771 131.026 21.0771 135.739C21.0771 140.452 17.2566 144.272 12.5438 144.272V144.272Z" fill="#026A00"/>
<path d="M468.5 0L162.133 7.5001C99.6522 7.60895 42.7793 43.5682 15.8891 99.967C14.7951 102.012 14.6222 104.425 15.4134 106.605C16.2047 108.785 17.8854 110.526 20.0363 111.393C24.273 113.099 29.1152 111.355 31.2917 107.34C55.3394 56.8657 106.223 24.6756 162.133 24.5668H349.867C429.948 24.6561 494.844 89.5521 494.933 169.633V220.833C494.844 300.914 429.948 365.81 349.867 365.9H167.108C162.238 365.896 157.468 367.284 153.361 369.902L76.8 418.619V350.301C76.7259 342.728 73.3584 335.564 67.5755 330.674C35.5344 303.172 17.0886 263.059 17.0667 220.833V169.633C17.0667 164.92 13.2462 161.1 8.53333 161.1C3.8205 161.1 0 164.92 0 169.633V220.833C0.0317776 268.019 20.6417 312.844 56.4395 343.585C58.4604 345.239 59.6625 347.69 59.7333 350.301V434.167C59.732 437.282 61.4286 440.15 64.1593 441.65C66.8901 443.149 70.221 443.042 72.8491 441.369L162.517 384.298C163.89 383.426 165.482 382.964 167.108 382.966H349.867C411.416 382.884 467.612 347.957 494.933 292.803V323.233C494.872 379.762 449.062 425.572 392.533 425.633H314.522C310.642 410.609 297.117 400.091 281.6 400.033H230.4C211.549 400.033 196.267 415.315 196.267 434.167C196.267 453.018 211.549 468.3 230.4 468.3H281.6C297.117 468.242 310.642 457.724 314.522 442.7H392.533C458.484 442.629 511.929 389.184 512 323.233V169.633C511.901 80.1303 558.003 0.0987605 468.5 0ZM281.6 451.233H230.4C220.974 451.233 213.333 443.592 213.333 434.167C213.333 424.741 220.974 417.1 230.4 417.1H281.6C291.026 417.1 298.667 424.741 298.667 434.167C298.667 443.592 291.026 451.233 281.6 451.233Z" fill="#026A00"/>
<path d="M136.533 229.367C160.098 229.367 179.2 210.264 179.2 186.7C179.2 163.136 160.098 144.033 136.533 144.033C112.969 144.033 93.8667 163.136 93.8667 186.7C93.8949 210.252 112.981 229.338 136.533 229.367ZM136.533 161.1C150.672 161.1 162.133 172.562 162.133 186.7C162.133 200.838 150.672 212.3 136.533 212.3C122.395 212.3 110.933 200.838 110.933 186.7C110.933 172.562 122.395 161.1 136.533 161.1Z" fill="#026A00"/>
<path d="M375.466 229.367C399.031 229.367 418.133 210.264 418.133 186.7C418.133 163.136 399.031 144.033 375.466 144.033C351.902 144.033 332.8 163.136 332.8 186.7C332.828 210.252 351.914 229.338 375.466 229.367ZM375.466 161.1C389.605 161.1 401.066 172.562 401.066 186.7C401.066 200.838 389.605 212.3 375.466 212.3C361.328 212.3 349.866 200.838 349.866 186.7C349.866 172.562 361.328 161.1 375.466 161.1Z" fill="#026A00"/>
<path d="M145.067 306.167H366.933C423.487 306.167 469.333 260.321 469.333 203.767C469.333 147.213 423.487 101.367 366.933 101.367H145.067C88.5125 101.367 42.6665 147.213 42.6665 203.767C42.6665 260.321 88.5125 306.167 145.067 306.167ZM145.067 118.433H366.933C414.061 118.433 452.267 156.638 452.267 203.767C452.267 250.895 414.061 289.1 366.933 289.1H145.067C97.9382 289.1 59.7332 250.895 59.7332 203.767C59.7332 156.638 97.9382 118.433 145.067 118.433Z" fill="#026A00"/>
<path d="M651.309 271.173C651.309 280.286 657.279 285 667.021 285H733.326C739.611 284.057 745.896 279.972 745.896 270.231C745.896 256.718 733.326 255.147 733.326 246.034V225.608C733.326 223.408 734.583 222.151 736.783 222.151H754.066C805.288 222.151 850.539 201.725 850.539 149.561C850.539 97.0821 805.288 74.4565 754.066 74.4565H674.248C658.222 74.4565 651.309 81.6842 651.309 90.483C651.309 105.567 667.335 109.023 667.335 122.85V248.548C667.335 256.718 651.309 258.289 651.309 271.173ZM733.326 133.22C733.326 123.164 735.526 111.537 747.467 110.909H748.724C763.494 110.909 776.692 123.164 776.692 148.618C776.692 175.015 763.494 185.699 748.724 185.699H743.696C737.412 185.699 733.326 181.928 733.326 175.643V133.22ZM863.136 82.3126C863.136 102.11 877.906 115.308 900.217 115.308C922.528 115.308 937.298 102.11 937.298 82.3126C937.298 62.5153 922.528 49.317 900.217 49.317C877.906 49.317 863.136 62.5153 863.136 82.3126ZM935.412 158.988C935.412 138.562 922.214 127.878 900.531 127.878H876.334C862.822 127.878 856.537 135.106 856.537 143.904C856.537 158.988 872.563 162.445 872.563 176.272V245.72C872.563 254.518 856.537 256.09 856.537 269.602C856.537 279.344 862.822 283.115 872.249 284.372C884.19 285.943 894.875 286.885 905.245 286.885C915.615 286.885 925.356 285.943 935.726 284.372C945.154 282.8 951.439 279.344 951.439 269.602C951.439 256.09 935.412 254.518 935.412 245.72V158.988ZM969.918 122.85V246.348C969.918 255.147 953.891 256.718 953.891 270.231C953.891 279.972 960.176 283.743 969.603 285C980.916 286.571 992.229 287.514 1003.54 287.514C1014.23 287.514 1024.91 286.571 1035.91 285C1042.19 284.057 1048.48 279.658 1048.48 269.288C1048.48 255.147 1035.91 253.576 1035.91 244.148V209.581C1035.91 206.753 1037.79 204.868 1040.62 204.868H1098.44C1101.27 204.868 1103.16 206.753 1103.16 209.581V244.148C1103.16 253.576 1088.7 255.147 1088.7 269.288C1088.7 279.658 1096.87 284.057 1103.16 285C1114.16 286.571 1124.84 287.514 1135.52 287.514C1146.84 287.514 1158.15 286.571 1169.46 285C1178.89 283.743 1185.17 279.972 1185.17 270.231C1185.17 256.718 1169.15 255.147 1169.15 246.348V122.85C1169.15 109.023 1185.17 105.567 1185.17 90.483C1185.17 81.6842 1178.26 74.4565 1162.23 74.4565H1110.07C1094.04 74.4565 1089.64 81.6842 1089.64 90.483C1089.64 105.567 1103.16 109.023 1103.16 122.85V160.874C1103.16 163.702 1101.27 165.587 1098.44 165.587H1040.62C1037.79 165.587 1035.91 163.702 1035.91 160.874V122.85C1035.91 109.023 1049.42 105.567 1049.42 90.483C1049.42 81.6842 1045.02 74.4565 1029 74.4565H976.831C960.805 74.4565 953.891 81.6842 953.891 90.483C953.891 105.567 969.918 109.023 969.918 122.85ZM1194.26 206.439C1194.26 263.631 1234.17 288.142 1281.62 288.142C1328.75 288.142 1368.66 263.631 1368.66 206.439C1368.66 149.247 1328.75 124.736 1281.62 124.736C1234.17 124.736 1194.26 149.247 1194.26 206.439ZM1301.1 202.982C1306.76 241.006 1303.62 257.032 1289.47 259.232C1288.53 259.232 1287.59 259.546 1286.96 259.546C1275.02 259.546 1267.16 244.777 1261.82 209.896C1256.16 171.872 1259.62 155.846 1273.13 153.646C1274.08 153.646 1275.02 153.332 1275.96 153.332C1288.22 153.332 1295.76 168.101 1301.1 202.982ZM1552.41 151.446C1551.78 152.389 1550.84 153.018 1550.21 153.018C1549.27 153.018 1548.64 152.389 1548.01 151.132C1540.16 133.849 1523.19 124.736 1500.25 124.736C1481.71 124.736 1465.99 134.163 1454.68 147.99C1453.74 148.932 1453.11 149.561 1452.48 149.561C1451.54 149.561 1450.91 148.932 1450.28 147.675C1449.97 147.047 1449.34 145.79 1449.02 145.161C1442.74 134.163 1429.54 127.878 1418.54 127.878H1397.49C1381.46 127.878 1374.55 135.106 1374.55 143.904C1374.55 158.988 1390.57 162.445 1390.57 176.272V245.091C1390.57 253.89 1374.55 255.461 1374.55 268.974C1374.55 278.715 1380.83 282.486 1390.26 283.743C1401.57 285.314 1411.94 286.257 1422.63 286.257C1432.37 286.257 1442.43 285.314 1453.42 283.743C1459.71 282.8 1465.99 278.401 1465.99 268.031C1465.99 253.89 1453.42 252.319 1453.42 242.891V210.838C1455.94 193.241 1464.11 167.787 1476.36 167.787C1485.79 167.787 1490.19 178.471 1490.19 197.64V243.206C1490.19 252.633 1474.16 255.461 1474.16 269.602C1474.16 279.972 1480.45 282.8 1489.88 284.057C1501.19 285.628 1511.56 286.571 1522.24 286.571C1531.98 286.571 1542.04 285.628 1553.04 284.057C1559.32 283.115 1565.61 278.715 1565.61 268.345C1565.61 254.204 1553.04 252.633 1553.04 243.206V210.838C1555.55 193.241 1563.72 167.787 1575.98 167.787C1585.41 167.787 1589.81 178.471 1589.81 197.64V243.206C1589.81 252.633 1573.78 254.204 1573.78 268.345C1573.78 278.715 1580.06 282.8 1589.49 284.057C1600.8 285.628 1611.17 286.571 1621.86 286.571C1631.6 286.571 1641.66 285.628 1652.65 284.057C1658.94 283.115 1665.22 278.715 1665.22 268.345C1665.22 254.204 1652.65 252.633 1652.65 243.206V176.9C1652.65 143.276 1632.54 124.736 1599.86 124.736C1579.75 124.736 1563.41 135.42 1552.41 151.446ZM1755.28 238.492C1753.08 236.606 1753.71 234.092 1756.23 232.836L1818.76 202.354C1835.73 194.183 1837.93 176.272 1830.7 160.559C1819.39 135.42 1793.62 124.107 1763.77 124.107C1703.75 124.107 1666.67 172.815 1676.09 220.58C1684.58 264.26 1718.52 288.142 1761.88 288.142C1798.65 288.142 1825.36 272.116 1837.3 236.292C1840.76 226.236 1836.99 221.837 1832.27 221.837C1829.76 221.837 1826.62 223.094 1824.42 225.294C1809.96 239.749 1795.19 247.605 1779.8 247.605C1769.43 247.605 1761.57 244.148 1755.28 238.492ZM1740.52 200.783C1739.89 201.097 1739.26 201.411 1738.63 201.411C1737.06 201.411 1735.49 200.154 1734.86 197.954C1728.26 176.9 1733.29 162.131 1744.29 158.045C1746.49 157.103 1748.69 156.788 1750.89 156.788C1760 156.788 1767.23 163.702 1771 173.129C1773.82 179.728 1773.51 185.699 1765.34 189.47L1740.52 200.783Z" fill="#026A00"/>
<path d="M646.667 385.699C646.667 404.269 658.303 412.478 671.932 412.558C681.815 412.558 689.546 408.174 692.494 398.531C692.973 396.538 692.415 395.582 691.458 395.582C690.821 395.582 689.944 396.06 689.227 397.016C685.003 402.914 680.619 406.182 673.128 406.182C663.962 406.182 655.594 399.248 654.637 385.54C653.681 372.788 658.622 364.579 666.831 363.064C668.027 362.825 669.222 362.746 670.338 362.746C676.395 362.746 681.018 366.173 683.648 373.266C684.764 376.135 686.995 377.41 689.067 377.41C692.415 377.41 695.204 373.983 691.777 367.926C687.792 360.833 681.257 358.043 672.091 358.043C658.064 358.043 646.667 366.731 646.667 385.699ZM741.466 392.314C741.466 406.501 749.595 412.558 760.116 412.558C770.636 412.558 778.686 406.501 778.686 392.314C778.686 378.207 770.636 372.15 760.116 372.15C749.595 372.15 741.466 378.207 741.466 392.314ZM771.194 391.597C771.991 403.472 767.847 408.573 761.232 408.971C751.986 408.971 749.595 400.842 749.038 392.952C748.161 381.236 752.305 376.215 758.841 375.737C759.159 375.737 759.478 375.737 759.717 375.737C765.854 375.737 770.397 380.519 771.194 391.597ZM837.87 382.352C837.791 382.591 837.631 382.75 837.551 382.75C837.472 382.75 837.392 382.591 837.312 382.272C837.233 380.997 837.233 377.171 837.153 376.215C836.675 373.665 834.603 372.708 832.69 372.708H830.697C828.147 372.708 826.553 373.186 826.553 374.621C826.553 377.331 830.618 377.331 830.618 380.359V403.791C830.618 408.892 826.553 407.537 826.553 409.928C826.553 411.362 827.589 411.761 829.98 411.92C831.255 412.08 832.69 412.159 834.204 412.159C835.479 412.159 836.834 412.08 837.95 411.92C840.182 411.761 841.138 411.283 841.138 409.848C841.138 407.457 837.472 408.732 837.472 403.632V393.749C837.95 387.771 842.254 377.012 849.506 377.012C855.085 377.012 858.114 380.598 858.114 387.134V403.632C858.114 408.732 854.049 407.457 854.049 409.848C854.049 411.283 855.085 411.761 857.476 411.92C858.752 412.08 860.186 412.159 861.7 412.159C862.976 412.159 864.33 412.08 865.446 411.92C867.678 411.761 868.634 411.283 868.634 409.848C868.634 407.457 864.968 408.732 864.968 403.632V385.301C864.968 377.012 860.106 372.15 851.579 372.15C845.282 372.15 840.5 376.693 837.87 382.352ZM915.981 377.41C918.611 377.331 919.648 377.251 920.684 377.171C921.162 377.092 921.481 377.41 921.481 377.889V401.081C921.481 411.283 926.741 412.558 930.806 412.558C938.616 412.558 942.92 406.102 940.449 404.349C940.21 404.189 939.971 404.11 939.652 404.11C937.58 404.11 933.994 407.457 931.443 407.457C929.61 407.457 928.335 405.863 928.335 400.444V377.57C928.335 377.092 928.654 376.852 929.132 376.852C932.16 377.012 934.87 377.41 938.377 377.41C941.326 377.41 941.326 372.708 938.377 372.708C934.791 372.708 932.081 372.947 929.132 373.107C928.654 373.186 928.335 372.868 928.335 372.389V361.231C928.335 360.195 928.096 359.319 927.219 359.319C925.306 359.319 921.481 361.789 921.481 363.861V372.23C921.481 372.708 921.162 372.947 920.684 372.947C919.09 372.868 918.293 372.708 915.981 372.708C913.033 372.708 913.192 377.49 915.981 377.41ZM999.401 382.033C999.321 382.272 999.241 382.352 999.162 382.352C999.082 382.352 999.082 382.272 999.002 382.033C998.922 380.917 998.763 376.852 998.604 375.737C997.966 373.505 996.292 372.708 994.539 372.708H992.547C989.996 372.708 988.402 373.186 988.402 374.621C988.402 377.331 992.467 377.41 992.467 380.359V403.791C992.467 408.892 988.402 407.537 988.402 409.928C988.402 411.362 989.438 411.761 991.829 411.92C993.104 412.08 994.539 412.159 995.974 412.159C997.408 412.159 998.763 412.08 999.879 411.92C1002.35 411.681 1003.23 411.362 1003.23 409.928C1003.23 407.537 999.321 408.892 999.321 403.791V390.561C999.799 386.895 1001.87 379.243 1006.73 379.243C1008.57 379.243 1010.56 380.12 1013.27 380.28C1015.82 380.28 1018.37 379.881 1018.45 376.773C1018.53 373.904 1016.14 372.15 1011.36 372.15C1004.9 372.15 1001.31 376.852 999.401 382.033ZM1063.45 392.314C1063.45 406.501 1071.58 412.558 1082.1 412.558C1092.62 412.558 1100.67 406.501 1100.67 392.314C1100.67 378.207 1092.62 372.15 1082.1 372.15C1071.58 372.15 1063.45 378.207 1063.45 392.314ZM1093.18 391.597C1093.98 403.472 1089.83 408.573 1083.22 408.971C1073.97 408.971 1071.58 400.842 1071.02 392.952C1070.15 381.236 1074.29 376.215 1080.83 375.737C1081.15 375.737 1081.46 375.737 1081.7 375.737C1087.84 375.737 1092.38 380.519 1093.18 391.597ZM1159.46 356.928C1159.46 353.66 1157.55 352.225 1154.68 352.225H1152.36C1150.05 352.225 1148.54 352.783 1148.54 354.218C1148.54 356.848 1152.6 356.928 1152.6 359.876V403.791C1152.6 408.892 1148.54 407.537 1148.54 409.848C1148.54 411.283 1149.58 411.681 1151.97 411.92C1153.16 412.08 1154.6 412.08 1156.11 412.08C1157.55 412.08 1158.98 412.08 1160.02 411.92C1162.49 411.681 1163.36 411.283 1163.36 409.848C1163.36 407.537 1159.46 408.892 1159.46 403.791V356.928ZM1222.21 356.928C1222.21 353.66 1220.3 352.225 1217.43 352.225H1215.12C1212.8 352.225 1211.29 352.783 1211.29 354.218C1211.29 356.848 1215.35 356.928 1215.35 359.876V403.791C1215.35 408.892 1211.29 407.537 1211.29 409.848C1211.29 411.283 1212.33 411.681 1214.72 411.92C1215.91 412.08 1217.35 412.08 1218.86 412.08C1220.3 412.08 1221.73 412.08 1222.77 411.92C1225.24 411.681 1226.11 411.283 1226.11 409.848C1226.11 407.537 1222.21 408.892 1222.21 403.791V356.928ZM1283.84 400.364C1283.61 399.886 1283.76 399.407 1284.32 399.168L1301.14 391.278C1307.12 388.568 1310.14 385.062 1307.2 379.801C1304.81 375.099 1299.94 372.071 1293.01 372.071C1292.37 372.071 1291.73 372.071 1291.02 372.15C1278.5 373.107 1272.53 384.743 1274.6 396.618C1276.43 407.377 1283.61 412.558 1292.93 412.558C1299.94 412.398 1305.76 409.848 1308.79 402.516C1309.59 400.683 1309.11 399.965 1308.31 399.965C1307.67 399.965 1306.88 400.364 1306.24 401.161C1303.05 404.907 1299.62 407.617 1295 407.617C1289.98 407.617 1286.08 405.544 1283.84 400.364ZM1282.65 395.024C1282.49 395.104 1282.33 395.183 1282.25 395.183C1281.85 395.183 1281.53 394.865 1281.45 394.466C1279.86 386.895 1281.21 377.968 1289.26 376.295C1290.06 376.135 1290.94 375.976 1291.65 375.976C1295.96 375.976 1299.31 378.765 1300.82 381.634C1302.97 385.38 1299.86 387.213 1295.64 389.206L1282.65 395.024ZM1367.79 382.033C1367.71 382.272 1367.63 382.352 1367.55 382.352C1367.47 382.352 1367.47 382.272 1367.39 382.033C1367.32 380.917 1367.16 376.852 1367 375.737C1366.36 373.505 1364.68 372.708 1362.93 372.708H1360.94C1358.39 372.708 1356.79 373.186 1356.79 374.621C1356.79 377.331 1360.86 377.41 1360.86 380.359V403.791C1360.86 408.892 1356.79 407.537 1356.79 409.928C1356.79 411.362 1357.83 411.761 1360.22 411.92C1361.5 412.08 1362.93 412.159 1364.37 412.159C1365.8 412.159 1367.16 412.08 1368.27 411.92C1370.74 411.681 1371.62 411.362 1371.62 409.928C1371.62 407.537 1367.71 408.892 1367.71 403.791V390.561C1368.19 386.895 1370.26 379.243 1375.13 379.243C1376.96 379.243 1378.95 380.12 1381.66 380.28C1384.21 380.28 1386.76 379.881 1386.84 376.773C1386.92 373.904 1384.53 372.15 1379.75 372.15C1373.29 372.15 1369.71 376.852 1367.79 382.033Z" fill="#026A00"/>
</svg>
