<?xml version="1.0" encoding="iso-8859-1"?>
<!-- Generator: Adobe Illustrator 19.0.0, SVG Export Plug-In . SVG Version: 6.00 Build 0)  -->
<svg version="1.1" id="Capa_1" xmlns="http://www.w3.org/2000/svg" xmlns:xlink="http://www.w3.org/1999/xlink" x="0px" y="0px"
	 viewBox="0 0 511.511 511.511" style="enable-background:new 0 0 511.511 511.511;" xml:space="preserve">
<g>
	<circle style="fill:#A4C2F7;" cx="255.777" cy="255.756" r="105.931"/>
	
		<linearGradient id="SVGID_1_" gradientUnits="userSpaceOnUse" x1="-49.103" y1="651.9317" x2="-48.3437" y2="651.2673" gradientTransform="matrix(185.3793 0 0 -211.8621 9274.5693 138304.9688)">
		<stop  offset="0" style="stop-color:#D4E1F4"/>
		<stop  offset="0.1717" style="stop-color:#D4E1F4"/>
		<stop  offset="0.2" style="stop-color:#D4E1F4"/>
		<stop  offset="0.2001" style="stop-color:#DAE4F4"/>
		<stop  offset="0.2007" style="stop-color:#EBEBF4"/>
		<stop  offset="0.2014" style="stop-color:#F6F1F4"/>
		<stop  offset="0.2023" style="stop-color:#FDF4F4"/>
		<stop  offset="0.205" style="stop-color:#FFF5F4"/>
		<stop  offset="0.2522" style="stop-color:#FFF5F4"/>
		<stop  offset="0.26" style="stop-color:#FFF5F4"/>
		<stop  offset="0.26" style="stop-color:#D4E1F4"/>
		<stop  offset="0.3974" style="stop-color:#D4E1F4"/>
		<stop  offset="0.42" style="stop-color:#D4E1F4"/>
		<stop  offset="0.4201" style="stop-color:#DAE4F4"/>
		<stop  offset="0.4207" style="stop-color:#EBEBF4"/>
		<stop  offset="0.4214" style="stop-color:#F6F1F4"/>
		<stop  offset="0.4223" style="stop-color:#FDF4F4"/>
		<stop  offset="0.425" style="stop-color:#FFF5F4"/>
		<stop  offset="0.4894" style="stop-color:#FFF5F4"/>
		<stop  offset="0.5" style="stop-color:#FFF5F4"/>
		<stop  offset="0.5" style="stop-color:#F9F2F4"/>
		<stop  offset="0.5001" style="stop-color:#E8EBF4"/>
		<stop  offset="0.5003" style="stop-color:#DDE5F4"/>
		<stop  offset="0.5005" style="stop-color:#D6E2F4"/>
		<stop  offset="0.501" style="stop-color:#D4E1F4"/>
		<stop  offset="0.7062" style="stop-color:#D4E1F4"/>
		<stop  offset="0.74" style="stop-color:#D4E1F4"/>
		<stop  offset="0.741" style="stop-color:#FFF5F4"/>
		<stop  offset="0.8346" style="stop-color:#FFF5F4"/>
		<stop  offset="0.85" style="stop-color:#FFF5F4"/>
		<stop  offset="0.851" style="stop-color:#D4E1F4"/>
	</linearGradient>
	<ellipse style="fill:url(#SVGID_1_);" cx="242.271" cy="255.756" rx="92.69" ry="105.931"/>
	<path style="fill:#FFFFFF;" d="M230.842,361.687c-34.994-22.375-55.764-61.4-54.778-102.925
		c-0.986-41.525,19.784-80.55,54.778-102.925c-47.644,11.365-81.261,53.944-81.261,102.925S183.198,350.322,230.842,361.687
		L230.842,361.687z"/>
	<g>
		<path style="fill:#428DFF;" d="M8.827,263.139c-3.563,0-6.777-2.143-8.148-5.433s-0.629-7.08,1.88-9.611l2.03-2.047
			c66.695-67.234,157.478-105.052,252.181-105.052s185.486,37.817,252.181,105.052c2.221,2.239,3.078,5.493,2.249,8.535
			s-3.218,5.412-6.267,6.215c-3.049,0.804-6.296-0.081-8.516-2.32c-63.381-63.891-149.651-99.828-239.647-99.828
			S80.505,194.589,17.124,258.48l-2.03,2.047C13.439,262.202,11.181,263.143,8.827,263.139z"/>
		<path style="fill:#428DFF;" d="M255.999,326.376c-39.003,0-70.621-31.618-70.621-70.621s31.618-70.621,70.621-70.621
			c4.875,0,8.828,3.952,8.828,8.828c0,4.875-3.952,8.828-8.828,8.828c-29.252,0-52.966,23.713-52.966,52.966
			s23.713,52.966,52.966,52.966c29.252,0,52.966-23.713,52.966-52.966c0-4.875,3.952-8.828,8.828-8.828s8.828,3.952,8.828,8.828
			C326.576,294.74,294.984,326.332,255.999,326.376L255.999,326.376z"/>
		<path style="fill:#428DFF;" d="M255.512,370.514c-52.68-0.011-98.584-35.894-111.312-87.013
			c-12.729-51.119,10.989-104.338,57.512-129.05s103.898-14.568,139.128,24.598s39.261,97.292,9.776,140.947
			c-2.733,4.037-8.221,5.095-12.259,2.362c-4.037-2.733-5.095-8.221-2.362-12.259c27.031-40.109,20.356-94.007-15.642-126.31
			s-90.301-33.125-127.26-1.926s-45.262,84.87-19.457,125.779s77.818,56.533,121.894,36.617c2.875-1.31,6.231-0.983,8.8,0.856
			c2.569,1.84,3.958,4.912,3.644,8.056c-0.315,3.144-2.285,5.88-5.168,7.174C287.95,367.081,271.823,370.548,255.512,370.514
			L255.512,370.514z"/>
		<circle style="fill:#428DFF;" cx="325.648" cy="335.204" r="8.828"/>
	</g>
</g>
<g>
</g>
<g>
</g>
<g>
</g>
<g>
</g>
<g>
</g>
<g>
</g>
<g>
</g>
<g>
</g>
<g>
</g>
<g>
</g>
<g>
</g>
<g>
</g>
<g>
</g>
<g>
</g>
<g>
</g>
</svg>
